<svg width="116" height="30" viewBox="0 0 116 30" fill="none" xmlns="http://www.w3.org/2000/svg">
<g clip-path="url(#clip0_108_2682)">
<path fill-rule="evenodd" clip-rule="evenodd" d="M28.1153 22.2871C29.315 20.1284 30 17.6438 30 15C30 6.71686 23.2868 0 15 0C6.71316 0 0 6.71686 0 15C0 23.2831 6.71686 30 15 30C16.5181 30 17.9807 29.7741 19.3619 29.3557L27.4821 29.8482L28.1153 22.2834V22.2871ZM9.2903 13.1264C13.2264 16.7922 18.9657 22.7685 15.4925 24.6384C11.4231 27.234 7.72032 23.3424 5.72822 20.8171L7.97211 19.7174C8.72007 20.4283 9.0237 20.8356 9.56801 21.3281C12.0304 23.5683 13.5781 21.4354 12.3858 20.0099C10.6714 18.3029 9.00889 16.5589 7.24636 14.9185L7.18341 14.8556L7.05752 14.726C5.78376 13.3115 7.54629 11.5009 9.294 13.1264H9.2903ZM19.921 22.8092C19.6581 19.5878 15.6665 14.9852 12.4969 12.1637C10.7566 10.5715 8.39793 8.8978 5.95038 9.36806C5.5764 9.43841 5.20983 9.54579 4.86547 9.6902C5.36164 8.58307 6.6354 7.83881 7.99432 7.57961C12.1155 6.78721 16.4145 12.1489 18.6732 15.0148L22.5944 13.5448C23.6423 14.863 25.4863 16.8995 24.8753 19.0916C24.4532 20.6097 21.7465 22.4093 19.9173 22.8129L19.921 22.8092ZM25.1345 9.38287C24.631 9.75685 20.3727 11.6712 19.5804 11.8304C16.8514 8.24611 14.3261 6.66502 12.2229 5.5801C15.0259 4.54332 17.0995 3.94717 20.2283 5.27277C21.9687 6.00963 24.2977 8.12392 25.1345 9.38287Z" fill="#4541FF"/>
<path d="M115.549 7.63867H112.983V22.361H115.549V7.63867Z" fill="#1A1A1A"/>
<path fill-rule="evenodd" clip-rule="evenodd" d="M107.559 12.6337C107.559 13.4372 107.273 14.0815 106.703 14.5666C106.137 15.0554 105.355 15.296 104.37 15.296H101.353V9.97513H104.37C105.341 9.97513 106.114 10.1973 106.692 10.6416C107.27 11.0823 107.559 11.7488 107.559 12.6374V12.6337ZM110.188 12.5819C110.188 11.8265 110.058 11.1452 109.799 10.5417C109.54 9.9381 109.169 9.41971 108.684 8.98649C108.199 8.55326 107.61 8.22001 106.918 7.98673C106.226 7.75716 105.448 7.63867 104.593 7.63867H98.7866V22.361H101.353V17.6288H104.282C105.1 17.6288 105.863 17.5214 106.581 17.303C107.296 17.0845 107.921 16.766 108.458 16.3476C108.992 15.9255 109.414 15.3997 109.725 14.7702C110.032 14.1408 110.188 13.4113 110.188 12.5819Z" fill="#1A1A1A"/>
<path fill-rule="evenodd" clip-rule="evenodd" d="M91.0884 16.5142H86.0193L88.5446 10.6231L91.0884 16.5142ZM89.785 7.53125H87.3856L80.9058 22.3609H83.557L85.0714 18.8062H92.0326L93.5249 22.3609H96.2575L89.7776 7.53125H89.785Z" fill="#1A1A1A"/>
<path fill-rule="evenodd" clip-rule="evenodd" d="M69.1494 22.361H79.458V20.0282H71.7154V7.63867H69.1494V22.361Z" fill="#1A1A1A"/>
<path fill-rule="evenodd" clip-rule="evenodd" d="M63.3027 15.0221C63.3027 15.7367 63.1805 16.4143 62.9361 17.0512C62.6917 17.6881 62.351 18.2435 61.9178 18.7138C61.4846 19.184 60.9625 19.5543 60.3515 19.8283C59.7406 20.1023 59.0704 20.2393 58.3446 20.2393C57.6189 20.2393 56.9413 20.0986 56.3266 19.8172C55.7082 19.5358 55.1787 19.1581 54.7381 18.6804C54.2975 18.2028 53.9531 17.6474 53.7087 17.0068C53.4643 16.3699 53.3422 15.6923 53.3422 14.9776C53.3422 14.263 53.4643 13.5854 53.7087 12.9485C53.9531 12.3116 54.2938 11.7562 54.727 11.286C55.1602 10.8157 55.6823 10.4454 56.2933 10.1714C56.9042 9.89741 57.5744 9.76041 58.3039 9.76041C59.0333 9.76041 59.7072 9.90112 60.3219 10.1825C60.9403 10.4639 61.4698 10.8416 61.9104 11.3193C62.351 11.7969 62.6954 12.3524 62.9398 12.9929C63.1842 13.6298 63.3064 14.3074 63.3064 15.0221H63.3027ZM66.0168 14.9813C66.0168 13.9446 65.828 12.9633 65.4503 12.0376C65.0726 11.1119 64.5468 10.3047 63.8729 9.6197C63.199 8.93099 62.3918 8.39038 61.455 7.99048C60.5145 7.59058 59.4777 7.39062 58.3409 7.39062C57.2042 7.39062 56.1674 7.59428 55.2269 8.00159C54.2864 8.40889 53.4755 8.96061 52.7867 9.65303C52.098 10.3455 51.5685 11.1564 51.1871 12.0821C50.8094 13.0078 50.6206 13.989 50.6206 15.0258C50.6206 16.0626 50.8094 17.0438 51.1871 17.9695C51.5648 18.8952 52.0906 19.7024 52.7645 20.3874C53.4384 21.0761 54.2456 21.6167 55.1824 22.0166C56.1229 22.4165 57.1597 22.6165 58.2965 22.6165C59.4332 22.6165 60.47 22.4128 61.4105 22.0055C62.351 21.5982 63.162 21.0502 63.8507 20.3541C64.5394 19.6617 65.0689 18.8508 65.4503 17.9251C65.828 16.9994 66.0168 16.0181 66.0168 14.9813Z" fill="#1A1A1A"/>
<path fill-rule="evenodd" clip-rule="evenodd" d="M39.9753 11.486C39.9753 10.9935 40.1863 10.5788 40.6047 10.2344C41.0268 9.89009 41.6156 9.71976 42.371 9.71976C43.0449 9.71976 43.7114 9.84936 44.3705 10.1086C45.0296 10.3677 45.6961 10.7417 46.37 11.2342L47.7585 9.27913C47.0031 8.67557 46.1922 8.21643 45.3295 7.90169C44.4667 7.58695 43.4966 7.42773 42.4154 7.42773C41.6859 7.42773 41.012 7.53141 40.4011 7.73136C39.7827 7.93502 39.2569 8.22754 38.82 8.60522C38.3831 8.98291 38.0387 9.43465 37.7869 9.96044C37.5388 10.4862 37.4129 11.0713 37.4129 11.7156C37.4129 12.4043 37.5203 12.9856 37.7388 13.4633C37.9572 13.9409 38.2757 14.3482 38.6904 14.6815C39.1051 15.0185 39.6198 15.2999 40.2307 15.522C40.8454 15.7479 41.5415 15.9516 42.3302 16.133C43.0189 16.2996 43.5744 16.4625 44.0039 16.6181C44.4334 16.7736 44.7667 16.9365 45.0185 17.1142C45.2628 17.2883 45.4332 17.4808 45.522 17.6919C45.6146 17.9029 45.659 18.1399 45.659 18.4065C45.659 18.9804 45.4258 19.4359 44.9555 19.7728C44.4853 20.1098 43.8521 20.2764 43.0523 20.2764C42.1266 20.2764 41.3009 20.1098 40.5714 19.7839C39.842 19.4544 39.1199 18.9804 38.4053 18.3658L36.8501 20.2172C37.7351 21.017 38.6941 21.6094 39.7309 21.9945C40.7677 22.3796 41.8563 22.5721 42.9893 22.5721C43.7595 22.5721 44.4704 22.4759 45.1147 22.2796C45.7553 22.0834 46.3107 21.7946 46.7662 21.4169C47.2253 21.0392 47.5845 20.5763 47.8437 20.0283C48.0992 19.4803 48.2288 18.8582 48.2288 18.1547C48.2288 17.5363 48.1288 17.0031 47.9251 16.544C47.7215 16.0886 47.4216 15.6887 47.0291 15.3443C46.6366 14.9999 46.1404 14.7111 45.5442 14.4704C44.9481 14.2335 44.2594 14.015 43.4892 13.8187C42.7857 13.6521 42.2043 13.4892 41.7489 13.3337C41.2934 13.1782 40.9343 13.0115 40.6714 12.8301C40.4122 12.6487 40.2344 12.4524 40.1345 12.2414C40.0345 12.0303 39.9864 11.7785 39.9864 11.486H39.9753Z" fill="#1A1A1A"/>
</g>
<defs>
<clipPath id="clip0_108_2682">
<rect width="115.549" height="30" fill="white"/>
</clipPath>
</defs>
</svg>
